{"asset":{"version":"2.0","generator":"babylon.js glTF exporter for maya 2018 v1.2.30"},"scene":0,"scenes":[{"nodes":[0],"extensions":{}}],"nodes":[{"mesh":0,"translation":[-1.18207014,-0.4510684,0.40482834],"rotation":[-0.00194398616,0.03222658,0.0601816028,0.997665167],"scale":[1.0,1.0,1.0],"name":"skullbomb_low"}],"meshes":[{"primitives":[{"attributes":{"POSITION":1,"NORMAL":2,"TEXCOORD_0":3},"indices":0,"mode":4,"material":0}],"name":"skullbomb_low"}],"accessors":[{"bufferView":0,"componentType":5123,"count":2322,"type":"SCALAR","name":"accessorIndices"},{"bufferView":1,"componentType":5126,"count":499,"max":[4.472966,9.664078,5.42981052],"min":[-4.464872,-4.681548,-5.378503],"type":"VEC3","name":"accessorPositions"},{"bufferView":1,"byteOffset":5988,"componentType":5126,"count":499,"type":"VEC3","name":"accessorNormals"},{"bufferView":2,"componentType":5126,"count":499,"type":"VEC2","name":"accessorUVs"},{"bufferView":3,"componentType":5126,"count":263,"max":[5.0],"min":[0.0],"type":"SCALAR","name":"accessorAnimationInput"},{"bufferView":4,"componentType":5126,"count":263,"type":"VEC4","name":"accessorAnimationRotations"},{"bufferView":3,"byteOffset":1052,"componentType":5126,"count":301,"max":[5.0],"min":[0.0],"type":"SCALAR","name":"accessorAnimationInput"},{"bufferView":5,"componentType":5126,"count":301,"type":"VEC3","name":"accessorAnimationPositions"}],"bufferViews":[{"buffer":0,"byteLength":4644,"name":"bufferViewScalar"},{"buffer":0,"byteOffset":4644,"byteLength":11976,"byteStride":12,"name":"bufferViewFloatVec3"},{"buffer":0,"byteOffset":16620,"byteLength":3992,"byteStride":8,"name":"bufferViewFloatVec2"},{"buffer":0,"byteOffset":20612,"byteLength":2256,"name":"bufferViewAnimationFloatScalar"},{"buffer":0,"byteOffset":22868,"byteLength":4208,"name":"bufferViewAnimationFloatVec4"},{"buffer":0,"byteOffset":27076,"byteLength":3612,"name":"bufferViewAnimationFloatVec3"}],"buffers":[{"uri":"bomb.bin","byteLength":30688}],"materials":[{"pbrMetallicRoughness":{"baseColorFactor":[1.0,1.0,1.0,1.0],"baseColorTexture":{"index":2,"texCoord":0},"metallicFactor":1.0,"roughnessFactor":1.0,"metallicRoughnessTexture":{"index":1,"texCoord":0}},"normalTexture":{"index":0,"texCoord":0},"occlusionTexture":{"index":1,"texCoord":0},"emissiveFactor":[0.0,0.0,0.0],"alphaMode":"OPAQUE","name":"skullbombMat"}],"textures":[{"sampler":0,"source":0,"name":"bomb_skullbombMat_Normal.png"},{"sampler":1,"source":1,"name":"bomb_skullbombMat_ORM.png"},{"sampler":2,"source":2,"name":"bomb_skullbombMat_basecolor.png"}],"images":[{"uri":"bomb_skullbombMat_Normal.png"},{"uri":"bomb_skullbombMat_ORM.png"},{"uri":"bomb_skullbombMat_basecolor.png"}],"samplers":[{"magFilter":9729,"minFilter":9987,"wrapS":10497,"wrapT":10497},{"magFilter":9729,"minFilter":9987,"wrapS":10497,"wrapT":10497},{"magFilter":9729,"minFilter":9987,"wrapS":10497,"wrapT":10497}],"animations":[{"channels":[{"sampler":0,"target":{"node":0,"path":"rotation"}},{"sampler":1,"target":{"node":0,"path":"translation"}}],"samplers":[{"input":4,"interpolation":"LINEAR","output":5},{"input":6,"interpolation":"LINEAR","output":7}],"name":"bombHover"}]}