{
    "asset": {
        "version": "2.0",
        "generator": "babylon.js glTF exporter for maya 2018 v1.2.30"
    },
    "scene": 0,
    "scenes": [
        {
            "nodes": [
                0,
                1,
                2,
                3,
                4,
                5,
                6,
                7
            ],
            "extensions": {}
        }
    ],
    "nodes": [
        {
            "mesh": 0,
            "translation": [
                0.0,
                65.21012,
                -49.8099747
            ],
            "rotation": [
                0.6193209,
                0.0,
                0.0,
                0.785137951
            ],
            "scale": [
                1.0,
                1.0,
                1.0
            ],
            "name": "rollCage"
        },
        {
            "mesh": 1,
            "translation": [
                0.0,
                93.7178345,
                -17.8807526
            ],
            "rotation": [
                0.0,
                0.0,
                0.0,
                1.0
            ],
            "scale": [
                1.00542891,
                1.00542891,
                1.00542891
            ],
            "name": "helmet"
        },
        {
            "mesh": 2,
            "translation": [
                0.0,
                0.0,
                0.0
            ],
            "rotation": [
                0.0,
                0.0,
                0.0,
                1.0
            ],
            "scale": [
                1.0,
                1.0,
                1.0
            ],
            "name": "roadsterBody"
        },
        {
            "mesh": 3,
            "translation": [
                0.0,
                0.0,
                0.0
            ],
            "rotation": [
                0.0,
                0.0,
                0.0,
                1.0
            ],
            "scale": [
                1.0,
                1.0,
                1.0
            ],
            "name": "seat"
        },
        {
            "mesh": 4,
            "translation": [
                0.0,
                0.0,
                0.0
            ],
            "rotation": [
                0.0,
                0.0,
                0.0,
                1.0
            ],
            "scale": [
                1.0,
                1.0,
                1.0
            ],
            "name": "body"
        },
        {
            "mesh": 5,
            "translation": [
                0.0,
                0.0,
                0.0
            ],
            "rotation": [
                0.0,
                0.0,
                0.0,
                1.0
            ],
            "scale": [
                1.0,
                1.0,
                1.0
            ],
            "name": "dashWheel"
        },
        {
            "mesh": 6,
            "translation": [
                0.0,
                0.0,
                0.0
            ],
            "rotation": [
                0.0,
                0.0,
                0.0,
                1.0
            ],
            "scale": [
                1.0,
                1.0,
                1.0
            ],
            "name": "engine1"
        },
        {
            "mesh": 7,
            "translation": [
                0.0,
                0.0,
                0.0
            ],
            "rotation": [
                0.0,
                0.0,
                0.0,
                1.0
            ],
            "scale": [
                1.0,
                1.0,
                1.0
            ],
            "name": "wheels"
        }
    ],
    "meshes": [
        {
            "primitives": [
                {
                    "attributes": {
                        "POSITION": 1,
                        "NORMAL": 2,
                        "TANGENT": 3,
                        "TEXCOORD_0": 4
                    },
                    "indices": 0,
                    "mode": 4,
                    "material": 0
                }
            ],
            "name": "rollCage"
        },
        {
            "primitives": [
                {
                    "attributes": {
                        "POSITION": 6,
                        "NORMAL": 7,
                        "TANGENT": 8,
                        "TEXCOORD_0": 9
                    },
                    "indices": 5,
                    "mode": 4,
                    "material": 0
                }
            ],
            "name": "helmet"
        },
        {
            "primitives": [
                {
                    "attributes": {
                        "POSITION": 11,
                        "NORMAL": 12,
                        "TANGENT": 13,
                        "TEXCOORD_0": 14
                    },
                    "indices": 10,
                    "mode": 4,
                    "material": 1
                }
            ],
            "name": "roadsterBody"
        },
        {
            "primitives": [
                {
                    "attributes": {
                        "POSITION": 16,
                        "NORMAL": 17,
                        "TANGENT": 18,
                        "TEXCOORD_0": 19
                    },
                    "indices": 15,
                    "mode": 4,
                    "material": 0
                }
            ],
            "name": "seat"
        },
        {
            "primitives": [
                {
                    "attributes": {
                        "POSITION": 21,
                        "NORMAL": 22,
                        "TANGENT": 23,
                        "TEXCOORD_0": 24
                    },
                    "indices": 20,
                    "mode": 4,
                    "material": 0
                }
            ],
            "name": "body"
        },
        {
            "primitives": [
                {
                    "attributes": {
                        "POSITION": 26,
                        "NORMAL": 27,
                        "TANGENT": 28,
                        "TEXCOORD_0": 29
                    },
                    "indices": 25,
                    "mode": 4,
                    "material": 0
                }
            ],
            "name": "dashWheel"
        },
        {
            "primitives": [
                {
                    "attributes": {
                        "POSITION": 31,
                        "NORMAL": 32,
                        "TANGENT": 33,
                        "TEXCOORD_0": 34
                    },
                    "indices": 30,
                    "mode": 4,
                    "material": 0
                }
            ],
            "name": "engine1"
        },
        {
            "primitives": [
                {
                    "attributes": {
                        "POSITION": 36,
                        "NORMAL": 37,
                        "TANGENT": 38,
                        "TEXCOORD_0": 39
                    },
                    "indices": 35,
                    "mode": 4,
                    "material": 0
                }
            ],
            "name": "wheels"
        }
    ],
    "accessors": [
        {
            "bufferView": 0,
            "componentType": 5123,
            "count": 432,
            "type": "SCALAR",
            "name": "accessorIndices"
        },
        {
            "bufferView": 1,
            "componentType": 5126,
            "count": 145,
            "max": [
                20.39711,
                4.748863,
                20.1537819
            ],
            "min": [
                -20.3971081,
                -4.748863,
                -19.8857079
            ],
            "type": "VEC3",
            "name": "accessorPositions"
        },
        {
            "bufferView": 1,
            "byteOffset": 1740,
            "componentType": 5126,
            "count": 145,
            "type": "VEC3",
            "name": "accessorNormals"
        },
        {
            "bufferView": 2,
            "componentType": 5126,
            "count": 145,
            "type": "VEC4",
            "name": "accessorTangents"
        },
        {
            "bufferView": 3,
            "componentType": 5126,
            "count": 145,
            "type": "VEC2",
            "name": "accessorUVs"
        },
        {
            "bufferView": 0,
            "byteOffset": 864,
            "componentType": 5123,
            "count": 600,
            "type": "SCALAR",
            "name": "accessorIndices"
        },
        {
            "bufferView": 1,
            "byteOffset": 3480,
            "componentType": 5126,
            "count": 288,
            "max": [
                29.2808418,
                29.7803345,
                33.23038
            ],
            "min": [
                -29.2808418,
                -31.9240723,
                -35.21008
            ],
            "type": "VEC3",
            "name": "accessorPositions"
        },
        {
            "bufferView": 1,
            "byteOffset": 6936,
            "componentType": 5126,
            "count": 288,
            "type": "VEC3",
            "name": "accessorNormals"
        },
        {
            "bufferView": 2,
            "byteOffset": 2320,
            "componentType": 5126,
            "count": 288,
            "type": "VEC4",
            "name": "accessorTangents"
        },
        {
            "bufferView": 3,
            "byteOffset": 1160,
            "componentType": 5126,
            "count": 288,
            "type": "VEC2",
            "name": "accessorUVs"
        },
        {
            "bufferView": 0,
            "byteOffset": 2064,
            "componentType": 5123,
            "count": 2412,
            "type": "SCALAR",
            "name": "accessorIndices"
        },
        {
            "bufferView": 1,
            "byteOffset": 10392,
            "componentType": 5126,
            "count": 1286,
            "max": [
                74.4538,
                53.7636757,
                119.681313
            ],
            "min": [
                -74.4538,
                -14.5728979,
                -132.465118
            ],
            "type": "VEC3",
            "name": "accessorPositions"
        },
        {
            "bufferView": 1,
            "byteOffset": 25824,
            "componentType": 5126,
            "count": 1286,
            "type": "VEC3",
            "name": "accessorNormals"
        },
        {
            "bufferView": 2,
            "byteOffset": 6928,
            "componentType": 5126,
            "count": 1286,
            "type": "VEC4",
            "name": "accessorTangents"
        },
        {
            "bufferView": 3,
            "byteOffset": 3464,
            "componentType": 5126,
            "count": 1286,
            "type": "VEC2",
            "name": "accessorUVs"
        },
        {
            "bufferView": 0,
            "byteOffset": 6888,
            "componentType": 5123,
            "count": 720,
            "type": "SCALAR",
            "name": "accessorIndices"
        },
        {
            "bufferView": 1,
            "byteOffset": 41256,
            "componentType": 5126,
            "count": 198,
            "max": [
                32.28793,
                58.0919724,
                5.984375
            ],
            "min": [
                -32.28793,
                10.4077787,
                -41.70421
            ],
            "type": "VEC3",
            "name": "accessorPositions"
        },
        {
            "bufferView": 1,
            "byteOffset": 43632,
            "componentType": 5126,
            "count": 198,
            "type": "VEC3",
            "name": "accessorNormals"
        },
        {
            "bufferView": 2,
            "byteOffset": 27504,
            "componentType": 5126,
            "count": 198,
            "type": "VEC4",
            "name": "accessorTangents"
        },
        {
            "bufferView": 3,
            "byteOffset": 13752,
            "componentType": 5126,
            "count": 198,
            "type": "VEC2",
            "name": "accessorUVs"
        },
        {
            "bufferView": 0,
            "byteOffset": 8328,
            "componentType": 5123,
            "count": 1764,
            "type": "SCALAR",
            "name": "accessorIndices"
        },
        {
            "bufferView": 1,
            "byteOffset": 46008,
            "componentType": 5126,
            "count": 495,
            "max": [
                30.5197811,
                83.6649,
                27.4089451
            ],
            "min": [
                -30.5197811,
                10.6485691,
                -41.0130234
            ],
            "type": "VEC3",
            "name": "accessorPositions"
        },
        {
            "bufferView": 1,
            "byteOffset": 51948,
            "componentType": 5126,
            "count": 495,
            "type": "VEC3",
            "name": "accessorNormals"
        },
        {
            "bufferView": 2,
            "byteOffset": 30672,
            "componentType": 5126,
            "count": 495,
            "type": "VEC4",
            "name": "accessorTangents"
        },
        {
            "bufferView": 3,
            "byteOffset": 15336,
            "componentType": 5126,
            "count": 495,
            "type": "VEC2",
            "name": "accessorUVs"
        },
        {
            "bufferView": 0,
            "byteOffset": 11856,
            "componentType": 5123,
            "count": 1464,
            "type": "SCALAR",
            "name": "accessorIndices"
        },
        {
            "bufferView": 1,
            "byteOffset": 57888,
            "componentType": 5126,
            "count": 456,
            "max": [
                34.2095833,
                64.40283,
                48.0752029
            ],
            "min": [
                -34.2095833,
                19.56195,
                10.8657665
            ],
            "type": "VEC3",
            "name": "accessorPositions"
        },
        {
            "bufferView": 1,
            "byteOffset": 63360,
            "componentType": 5126,
            "count": 456,
            "type": "VEC3",
            "name": "accessorNormals"
        },
        {
            "bufferView": 2,
            "byteOffset": 38592,
            "componentType": 5126,
            "count": 456,
            "type": "VEC4",
            "name": "accessorTangents"
        },
        {
            "bufferView": 3,
            "byteOffset": 19296,
            "componentType": 5126,
            "count": 456,
            "type": "VEC2",
            "name": "accessorUVs"
        },
        {
            "bufferView": 0,
            "byteOffset": 14784,
            "componentType": 5123,
            "count": 1920,
            "type": "SCALAR",
            "name": "accessorIndices"
        },
        {
            "bufferView": 1,
            "byteOffset": 68832,
            "componentType": 5126,
            "count": 704,
            "max": [
                47.66445,
                63.1089745,
                106.7981
            ],
            "min": [
                -47.66445,
                -13.2118273,
                -137.850677
            ],
            "type": "VEC3",
            "name": "accessorPositions"
        },
        {
            "bufferView": 1,
            "byteOffset": 77280,
            "componentType": 5126,
            "count": 704,
            "type": "VEC3",
            "name": "accessorNormals"
        },
        {
            "bufferView": 2,
            "byteOffset": 45888,
            "componentType": 5126,
            "count": 704,
            "type": "VEC4",
            "name": "accessorTangents"
        },
        {
            "bufferView": 3,
            "byteOffset": 22944,
            "componentType": 5126,
            "count": 704,
            "type": "VEC2",
            "name": "accessorUVs"
        },
        {
            "bufferView": 0,
            "byteOffset": 18624,
            "componentType": 5123,
            "count": 6912,
            "type": "SCALAR",
            "name": "accessorIndices"
        },
        {
            "bufferView": 1,
            "byteOffset": 85728,
            "componentType": 5126,
            "count": 2036,
            "max": [
                77.73894,
                30.0000019,
                97.559
            ],
            "min": [
                -77.73894,
                -30.0000019,
                -105.669853
            ],
            "type": "VEC3",
            "name": "accessorPositions"
        },
        {
            "bufferView": 1,
            "byteOffset": 110160,
            "componentType": 5126,
            "count": 2036,
            "type": "VEC3",
            "name": "accessorNormals"
        },
        {
            "bufferView": 2,
            "byteOffset": 57152,
            "componentType": 5126,
            "count": 2036,
            "type": "VEC4",
            "name": "accessorTangents"
        },
        {
            "bufferView": 3,
            "byteOffset": 28576,
            "componentType": 5126,
            "count": 2036,
            "type": "VEC2",
            "name": "accessorUVs"
        },
        {
            "bufferView": 4,
            "componentType": 5126,
            "count": 2,
            "max": [
                8.3
            ],
            "min": [
                0.0
            ],
            "type": "SCALAR",
            "name": "accessorAnimationInput"
        },
        {
            "bufferView": 5,
            "componentType": 5126,
            "count": 2,
            "type": "VEC4",
            "name": "accessorAnimationRotations"
        },
        {
            "bufferView": 4,
            "byteOffset": 8,
            "componentType": 5126,
            "count": 2,
            "max": [
                8.3
            ],
            "min": [
                0.0
            ],
            "type": "SCALAR",
            "name": "accessorAnimationInput"
        },
        {
            "bufferView": 6,
            "componentType": 5126,
            "count": 2,
            "type": "VEC3",
            "name": "accessorAnimationPositions"
        },
        {
            "bufferView": 4,
            "byteOffset": 16,
            "componentType": 5126,
            "count": 2,
            "max": [
                8.3
            ],
            "min": [
                0.0
            ],
            "type": "SCALAR",
            "name": "accessorAnimationInput"
        },
        {
            "bufferView": 6,
            "byteOffset": 24,
            "componentType": 5126,
            "count": 2,
            "type": "VEC3",
            "name": "accessorAnimationScales"
        },
        {
            "bufferView": 4,
            "byteOffset": 24,
            "componentType": 5126,
            "count": 2,
            "max": [
                8.3
            ],
            "min": [
                0.0
            ],
            "type": "SCALAR",
            "name": "accessorAnimationInput"
        },
        {
            "bufferView": 6,
            "byteOffset": 48,
            "componentType": 5126,
            "count": 2,
            "type": "VEC3",
            "name": "accessorAnimationPositions"
        }
    ],
    "bufferViews": [
        {
            "buffer": 0,
            "byteLength": 32448,
            "name": "bufferViewScalar"
        },
        {
            "buffer": 0,
            "byteOffset": 32448,
            "byteLength": 134592,
            "byteStride": 12,
            "name": "bufferViewFloatVec3"
        },
        {
            "buffer": 0,
            "byteOffset": 167040,
            "byteLength": 89728,
            "byteStride": 16,
            "name": "bufferViewFloatVec4"
        },
        {
            "buffer": 0,
            "byteOffset": 256768,
            "byteLength": 44864,
            "byteStride": 8,
            "name": "bufferViewFloatVec2"
        },
        {
            "buffer": 0,
            "byteOffset": 301632,
            "byteLength": 32,
            "name": "bufferViewAnimationFloatScalar"
        },
        {
            "buffer": 0,
            "byteOffset": 301664,
            "byteLength": 32,
            "name": "bufferViewAnimationFloatVec4"
        },
        {
            "buffer": 0,
            "byteOffset": 301696,
            "byteLength": 72,
            "name": "bufferViewAnimationFloatVec3"
        }
    ],
    "buffers": [
        {
            "uri": "roadsterKart.bin",
            "byteLength": 301768
        }
    ],
    "materials": [
        {
            "pbrMetallicRoughness": {
                "baseColorFactor": [
                    0.3344,
                    0.3344,
                    0.3344,
                    1.0
                ],
                "metallicFactor": 0.0,
                "roughnessFactor": 0.5804196
            },
            "emissiveFactor": [
                0.0,
                0.0,
                0.0
            ],
            "alphaMode": "OPAQUE",
            "doubleSided": true,
            "name": "kartDefaultMat"
        },
        {
            "pbrMetallicRoughness": {
                "baseColorFactor": [
                    0.451,
                    0.0,
                    0.0,
                    1.0
                ],
                "metallicFactor": 0.0,
                "roughnessFactor": 0.1
            },
            "emissiveFactor": [
                0.0,
                0.0,
                0.0
            ],
            "alphaMode": "OPAQUE",
            "doubleSided": true,
            "name": "kartBodyMat"
        }
    ]
}